<svg xmlns="http://www.w3.org/2000/svg" width="16" height="16" viewBox="0 0 16 16"><g transform="translate(231 -185)"><rect width="16" height="16" transform="translate(-231 185)" fill="none"/><g transform="translate(-293 185)"><g transform="translate(65.991 2.018)"><path d="M130.018,67.531c-.547,0-1.009-.346-1.009-.757s.462-.757,1.009-.757a1.135,1.135,0,0,1,.72.24.505.505,0,1,0,.638-.783,2.074,2.074,0,0,0-.854-.4V64.5a.5.5,0,1,0-1.009,0v.567a1.826,1.826,0,0,0-1.513,1.7,1.906,1.906,0,0,0,2.018,1.766c.547,0,1.009.346,1.009.757s-.462.757-1.009.757a1.135,1.135,0,0,1-.72-.24.505.505,0,0,0-.638.783,2.088,2.088,0,0,0,.854.4v.567a.5.5,0,1,0,1.009,0V71a1.826,1.826,0,0,0,1.513-1.7A1.906,1.906,0,0,0,130.018,67.531Z" transform="translate(-128 -64)" fill="#333"/></g><g transform="translate(64)"><path d="M75.961,4.308a.5.5,0,0,0-.108-.162l-4-4A.507.507,0,0,0,71.5,0H65a1,1,0,0,0-1,1V15a1,1,0,0,0,1,1H75a1,1,0,0,0,1-1V4.5a.5.5,0,0,0-.039-.192ZM72,1.707,74.293,4H72ZM75,15.5V15H65V1h6V4a1,1,0,0,0,1,1h3V15h0Z" transform="translate(-64)" fill="#333"/></g><g transform="translate(70.979 6.996)"><path d="M290.522,224H288.5a.5.5,0,1,0,0,1.009h2.018a.5.5,0,1,0,0-1.009Z" transform="translate(-288 -224)" fill="#333"/></g><g transform="translate(70.979 8.995)"><path d="M290.522,288H288.5a.5.5,0,1,0,0,1.009h2.018a.5.5,0,1,0,0-1.009Z" transform="translate(-288 -288)" fill="#333"/></g><g transform="translate(65.964 10.993)"><path d="M135.567,352H128.5a.5.5,0,0,0,0,1.009h7.062a.5.5,0,1,0,0-1.009Z" transform="translate(-128 -352)" fill="#333"/></g><g transform="translate(65.964 12.973)"><path d="M135.567,416H128.5a.5.5,0,0,0,0,1.009h7.062a.5.5,0,1,0,0-1.009Z" transform="translate(-128 -416)" fill="#333"/></g></g></g></svg>