<svg xmlns="http://www.w3.org/2000/svg" width="16.951" height="18" viewBox="0 0 16.951 18"><path d="M21.776,23.182a.845.845,0,0,0-.836.854V34.823H11.55V24.036a.836.836,0,1,0-1.671,0V35.677a.845.845,0,0,0,.836.854H21.776a.845.845,0,0,0,.836-.854V24.036A.845.845,0,0,0,21.776,23.182Z" transform="translate(-7.77 -18.531)" fill="#fff"/><path d="M16.111,2.212h-5V.534A.529.529,0,0,0,10.585,0H6.366a.529.529,0,0,0-.525.534V2.212h-5a.854.854,0,0,0,0,1.708H16.111a.854.854,0,0,0,0-1.708ZM6.891,1.068H10.06V2.212H6.891Z" fill="#fff"/><path d="M26.9,36.378V27.972a.534.534,0,1,0-1.068,0v8.406a.534.534,0,1,0,1.068,0Z" transform="translate(-20.416 -21.778)" fill="#fff"/><path d="M38.921,36.483V28.077a.534.534,0,0,0-1.068,0v8.406a.534.534,0,1,0,1.068,0Z" transform="translate(-29.911 -21.861)" fill="#fff"/><path d="M50.795,36.588V28.182a.534.534,0,1,0-1.068,0v8.406a.534.534,0,1,0,1.068,0Z" transform="translate(-39.294 -21.945)" fill="#fff"/></svg>