<svg xmlns="http://www.w3.org/2000/svg" width="16.4" height="16.4" viewBox="0 0 16.4 16.4"><g transform="translate(0.2 0.2)"><path d="M107.405,213.7a.37.37,0,1,0-.739,0,5.19,5.19,0,0,0,1.192,2.452.37.37,0,1,0,.572-.469A4.479,4.479,0,0,1,107.405,213.7Z" transform="translate(-103.037 -206.086)" fill="#fff" stroke="#fff" stroke-width="0.4"/><path d="M310.815,213.333a.369.369,0,0,0-.37.37,4.5,4.5,0,0,1-1.025,1.983.37.37,0,0,0,.572.469,5.19,5.19,0,0,0,1.192-2.452A.369.369,0,0,0,310.815,213.333Z" transform="translate(-298.813 -206.086)" fill="#fff" stroke="#fff" stroke-width="0.4"/><path d="M224.37,213.333a.369.369,0,0,0-.37.37v2.217a.37.37,0,1,0,.739,0V213.7A.369.369,0,0,0,224.37,213.333Z" transform="translate(-216.37 -206.086)" fill="#fff" stroke="#fff" stroke-width="0.4"/><path d="M12,1.455a3.809,3.809,0,0,0-.69.074,4.349,4.349,0,0,0-6.62,0A3.812,3.812,0,0,0,4,1.455,4,4,0,0,0,2.19,9.019l-.007,5.5A1.484,1.484,0,0,0,3.667,16h8.668a1.485,1.485,0,0,0,1.484-1.484v-5.5A4,4,0,0,0,12,1.455Zm1.091,13.062a.757.757,0,0,1-.756.756H3.667a.757.757,0,0,1-.756-.757l0-1.424H13.091Zm.225-6.069a.326.326,0,0,0-.054.028.364.364,0,0,0-.167.255.352.352,0,0,0,0,.061v3.571H2.913l0-3.566a.374.374,0,0,0,0-.06.364.364,0,0,0-.058-.151.36.36,0,0,0-.108-.105.381.381,0,0,0-.057-.029A3.271,3.271,0,0,1,4,2.182c.071,0,.145.009.218.014a4.332,4.332,0,0,0-.582,2.168.364.364,0,0,0,.727,0,3.636,3.636,0,1,1,7.273,0,.364.364,0,1,0,.727,0A4.332,4.332,0,0,0,11.782,2.2c.073-.006.148-.014.218-.014a3.271,3.271,0,0,1,1.316,6.266Z" fill="#fff" stroke="#fff" stroke-width="0.4"/></g></svg>