<svg xmlns="http://www.w3.org/2000/svg" width="83.831" height="39.327" viewBox="0 0 83.831 39.327"><g transform="translate(0 0.212)"><g transform="translate(0 -0.212)"><path d="M4359.266,3428H4298v.793h61.266Z" transform="translate(-4275.713 -3410.223)" fill="#f29015" fill-rule="evenodd"/><path d="M4359.266,6122H4298v.788h61.266Z" transform="translate(-4275.713 -6090.253)" fill="#f29015" fill-rule="evenodd"/><path d="M4339.081,3797.144c.923.042,2.681.052,5.269.042a2.752,2.752,0,0,0,.726-.145c.067-.016.109.005.119.062l-.119,1.063-.042.757a.2.2,0,0,1-.125.171l-.135-.062a1.616,1.616,0,0,0-.145-.747.773.773,0,0,0-.342-.259,4.153,4.153,0,0,0-.851-.119l-1.529-.021-.021.042.021,3.593,2.261-.015.4-.1.285-.28c.077,0,.124.026.14.083-.078.571-.129,1.255-.161,2.043-.026.1-.057.145-.1.145l-.145-.042a1.58,1.58,0,0,0-.14-.762.723.723,0,0,0-.384-.285,12.319,12.319,0,0,0-2.178-.057v3.474c.042.363.14.591.3.684a2.059,2.059,0,0,0,.664.176,4.2,4.2,0,0,0,1.862-.156l.28-.239.182-.384.083-.461c.052-.109.129-.135.218-.083l.046.176c-.015.368-.067.835-.145,1.416-.067.43-.3.6-.71.5l-3.308-.078-2.162.015-.094-.078c-.016-.078-.005-.129.036-.14l.648-.078c.161-.016.275-.187.342-.524a10.432,10.432,0,0,0,.083-1.633v-6.508a1.054,1.054,0,0,0-.208-.726.766.766,0,0,0-.44-.176l-.565-.021a.132.132,0,0,1-.1-.145C4338.951,3797.17,4339.014,3797.128,4339.081,3797.144Z" transform="translate(-4316.395 -3777.345)" fill="#2f408f"/><path d="M5845.208,3804.135a.23.23,0,0,1,.26.078,16.971,16.971,0,0,1,.824,1.7l2.826,6.026,3.552-7.706a.222.222,0,0,1,.3-.078.511.511,0,0,1,.125.254l1.2,8.514c.094.555.244.9.457,1.027a2.138,2.138,0,0,0,.529.161l.555.036.063.057c0,.093-.052.15-.155.181q-3.166,0-3.164-.181v-.093l.135-.1a.157.157,0,0,0,.083-.135v-.394l-.772-5.808h-.057l-2.945,6.357c-.145.28-.249.4-.316.358-.067.026-.265-.29-.6-.949l-1.281-2.608-1.343-3-.058-.021-.694,5.527c-.047.348,0,.565.161.654a2.856,2.856,0,0,0,.892.161c.063.052.083.1.057.156l-.119.083c-1.094-.031-2.074-.031-2.945,0l-.094-.1c-.015-.068,0-.109.037-.119l.612-.078c.238-.1.394-.457.477-1.048l1.26-8.675Q5845.169,3804.135,5845.208,3804.135Z" transform="translate(-5812.379 -3784.398)" fill="#2f408f"/><path d="M8606.211,3814.087v3.505l.035.062.208.042a1.956,1.956,0,0,0,1.358-.223,1.908,1.908,0,0,0,.545-1.2,2.748,2.748,0,0,0-.42-1.675,1.54,1.54,0,0,0-.965-.622l-.685.016Zm0,4.205v3.749a1.121,1.121,0,0,0,.119.544,1.479,1.479,0,0,0,.86.384,1.582,1.582,0,0,0,1.965-1.467,3.621,3.621,0,0,0-.643-2.318,2.808,2.808,0,0,0-.819-.726,3.587,3.587,0,0,0-.824-.187Zm-2.707-4.905,2.607.042,1.1-.042a4.561,4.561,0,0,1,.887.119,1.972,1.972,0,0,1,1.645,1.773l-.042.643a3.115,3.115,0,0,1-1.261,1.836l.617.28a3.258,3.258,0,0,1,1.588,1.773,3.04,3.04,0,0,1,.021,1.669c-.467,1.379-1.587,2.09-3.351,2.137l-1.467-.088-2.225.021-.1-.083c-.016-.078,0-.125.036-.135l.643-.083c.161-.016.275-.187.343-.519a10.885,10.885,0,0,0,.077-1.634v-6.523a1.05,1.05,0,0,0-.2-.726.828.828,0,0,0-.446-.182l-.561-.016c-.077-.026-.113-.078-.1-.145C8603.374,3813.413,8603.437,3813.372,8603.5,3813.387Z" transform="translate(-8558.706 -3793.609)" fill="#2f408f"/><path d="M10258.229,3807.46v4.366c.067.093.332.171.788.223a2.657,2.657,0,0,0,1.012-.083,2.3,2.3,0,0,0,1-2.012c.015-1.483-.571-2.354-1.748-2.614C10258.675,3807.3,10258.322,3807.341,10258.229,3807.46Zm-2.717-.788,2.453.042,1.644-.042a6.463,6.463,0,0,1,1.031.125,2.5,2.5,0,0,1,1.421.809,2.616,2.616,0,0,1,.529,1.317,3.384,3.384,0,0,1-.467,1.872,4.794,4.794,0,0,1-.57.726l-.685.653,2.105,2.717a9.859,9.859,0,0,0,1.177,1.26l.223.156a2.373,2.373,0,0,0,1.261.368c.083.052.088.129.021.223l-.223.042c-.7.016-1.354,0-1.992-.042a2.13,2.13,0,0,1-1.072-.508,7.32,7.32,0,0,1-1.079-1.26l-1.515-2.209a.387.387,0,0,0-.27-.2,7.493,7.493,0,0,0-1.275,0,19.476,19.476,0,0,0,.119,3.547c.109.2.2.306.265.306l.954.125c.057.135.026.208-.078.223q-2.216-.047-3.857,0l-.1-.083c-.011-.083,0-.13.041-.14l.648-.083c.166-.016.279-.187.348-.524a10.466,10.466,0,0,0,.078-1.649v-6.57a1.027,1.027,0,0,0-.2-.731.76.76,0,0,0-.445-.182l-.565-.021c-.083-.026-.119-.073-.1-.14C10255.377,3806.7,10255.444,3806.662,10255.512,3806.672Z" transform="translate(-10202.143 -3786.93)" fill="#2f408f"/><path d="M12458.029,3804.655a9.681,9.681,0,0,0,.058,1.291,6.147,6.147,0,0,0,.55,1.81,4.081,4.081,0,0,0,1.374,1.571,4.809,4.809,0,0,0,1.515.508,3.242,3.242,0,0,0,1.514-.218q1.586-.747,1.8-3.376a6.088,6.088,0,0,0-.876-3.874,3.66,3.66,0,0,0-2.541-1.488,3.365,3.365,0,0,0-1.545.233C12458.72,3801.663,12458.107,3802.845,12458.029,3804.655Zm3.081-4.423a6.8,6.8,0,0,1,2.437.3,4.475,4.475,0,0,1,3.1,4.283,5.619,5.619,0,0,1-1.494,4.242,4.971,4.971,0,0,1-1.727,1.115,6,6,0,0,1-4.008.042,4.956,4.956,0,0,1-3.158-4.516,5.405,5.405,0,0,1,1.415-3.988A5.083,5.083,0,0,1,12461.11,3800.231Z" transform="translate(-12391.666 -3780.515)" fill="#2f408f"/><path d="M14658.3,3812.3a15.526,15.526,0,0,1,.265-2.1l.1-.2h.182l.3.083.934.042h5.569a.3.3,0,0,1,.161.1.881.881,0,0,1-.161.378l-3.06,4.962-2.447,3.827v.021h3.443a4.571,4.571,0,0,0,.943-.145l.42-.176.182-.145a1.674,1.674,0,0,0,.316-.539c.083-.374.141-.565.182-.581.119-.026.187.036.2.187a7.046,7.046,0,0,1-.28,1.96.382.382,0,0,1-.155.218l-.125.042-4.678-.062h-2.364c-.119,0-.191-.026-.218-.078v-.161l.057-.14q4.707-7.444,5.586-8.929h-3.185a6.486,6.486,0,0,0-.9.14,1.315,1.315,0,0,0-.684.461l-.238.441-.078.4c-.042.094-.094.135-.161.119l-.062-.021Z" transform="translate(-14581.991 -3790.242)" fill="#2f408f"/><path d="M3.858,3160.962l2.432,1.716a.7.7,0,0,0,.016,1.058l3.319,3.013,3.339-3.344-2.017-1.67s-.161-.233-.373.057c-.705.98-2.017-.306-2.017-1.385L3.858,3157H0v16.163l3.858-.306Z" transform="translate(0 -3140.628)" fill="#2f408f" fill-rule="evenodd"/><path d="M1738.917,3157h3.853v15.857h-3.853v-11.61l-2.7,2.24-2.385-2.038s-.493-.254-.617.005c-.669,1.405-2.671-1.156-.83-1.416a2.906,2.906,0,0,1,1.161.036c.612.212,1.255.441,1.639.124l3.733-3.091Z" transform="translate(-1722.645 -3140.628)" fill="#2f408f" fill-rule="evenodd"/><path d="M1034.571,4541.161l-.762.762a.47.47,0,0,1-.669,0h0a.476.476,0,0,1,0-.674l.741-.741a.025.025,0,0,1,.036,0Z" transform="translate(-1027.643 -4516.955)" fill="#2f408f" fill-rule="evenodd"/><path d="M1216.317,4703.161l-.757.757a.475.475,0,0,1-.674,0h0a.479.479,0,0,1,0-.669l.742-.741a.024.024,0,0,1,.036,0Z" transform="translate(-1208.451 -4678.114)" fill="#2f408f" fill-rule="evenodd"/><path d="M1397.323,4864.161l-.762.762a.485.485,0,0,1-.674,0h0a.485.485,0,0,1,0-.674l.747-.742a.025.025,0,0,1,.036,0Z" transform="translate(-1388.512 -4838.279)" fill="#2f408f" fill-rule="evenodd"/><path d="M1578.571,5025.161l-.762.762a.469.469,0,0,1-.669,0h0a.469.469,0,0,1,0-.668l.741-.747a.025.025,0,0,1,.036,0Z" transform="translate(-1568.823 -4998.444)" fill="#2f408f" fill-rule="evenodd"/><path d="M1851,4898.61l.8.716a.475.475,0,0,0,.669-.042h0a.475.475,0,0,0-.036-.669l-.788-.7c-.01-.011-.026-.005-.036,0Z" transform="translate(-1841.402 -4872.511)" fill="#2f408f" fill-rule="evenodd"/><path d="M2015,4728.2l.8.71a.475.475,0,0,0,.669-.036h0a.477.477,0,0,0-.042-.674l-.783-.695a.025.025,0,0,0-.036,0Z" transform="translate(-2004.551 -4702.985)" fill="#2f408f" fill-rule="evenodd"/><path d="M2182,4550.042l.8.716a.475.475,0,0,0,.669-.042h0a.475.475,0,0,0-.036-.669l-.788-.7a.033.033,0,0,0-.036.005Z" transform="translate(-2170.685 -4525.752)" fill="#2f408f" fill-rule="evenodd"/><path d="M2364,4386.6l.762.617a.486.486,0,0,0,.674-.046h0a.487.487,0,0,0-.052-.674l-.7-.581a.025.025,0,0,0-.036,0Z" transform="translate(-2351.742 -4363.166)" fill="#2f408f" fill-rule="evenodd"/><path d="M4422,6702.111a.685.685,0,0,0,.27-.042.559.559,0,0,0,.114-.181c.093-.2.218-.487.363-.851l.835-2.038h.347l1.058,2.525a3.35,3.35,0,0,0,.254.523.623.623,0,0,0,.3.063v.213c-.259-.011-.5-.016-.726-.016-.27,0-.529,0-.772.016v-.213a1.182,1.182,0,0,0,.321-.031.069.069,0,0,0,.042-.067,1.409,1.409,0,0,0-.1-.3l-.156-.394c-.192-.005-.41-.005-.648-.005-.208,0-.4,0-.565.005l-.1.265a3.269,3.269,0,0,0-.1.321.307.307,0,0,0-.016.088.081.081,0,0,0,.046.078,2.226,2.226,0,0,0,.327.042v.213c-.15-.011-.342-.016-.57-.016s-.389,0-.519.016Zm1.54-2.276-.5,1.208c.145.005.306.011.477.011s.357-.005.523-.011Z" transform="translate(-4399.07 -6664.262)" fill="#727271"/><path d="M5211.727,6899.851h-.2a1.287,1.287,0,0,0-.037-.322.281.281,0,0,0-.14-.125.6.6,0,0,0-.27-.052.446.446,0,0,0-.363.14.844.844,0,0,0-.114.514,1.1,1.1,0,0,0,.213.721.691.691,0,0,0,.55.26,1.5,1.5,0,0,0,.228-.021,1,1,0,0,0,.187-.062l.037.052c-.031.072-.062.15-.094.228a1.416,1.416,0,0,1-.316.114,1.381,1.381,0,0,1-.327.036.985.985,0,0,1-1.084-1.089,1.809,1.809,0,0,1,.036-.347,1.057,1.057,0,0,1,.1-.265.713.713,0,0,1,.14-.181c.031-.021.166-.109.4-.26a1.6,1.6,0,0,1,.306-.16.84.84,0,0,1,.254-.031,1.591,1.591,0,0,1,.275.021,2.124,2.124,0,0,1,.264.063l.037.041A3.938,3.938,0,0,0,5211.727,6899.851Z" transform="translate(-5182.984 -6863.225)" fill="#727271"/><path d="M5710.244,6902.49v-.2c.078,0,.141-.01.177-.01a.263.263,0,0,0,.161-.031.1.1,0,0,0,.042-.057,4.087,4.087,0,0,0,.021-.493l.011-.8c-.12.083-.223.166-.322.249l-.171.14a.65.65,0,0,1-.239.046.857.857,0,0,1-.664-.274,1.09,1.09,0,0,1-.259-.768,1.62,1.62,0,0,1,.057-.436.906.906,0,0,1,.125-.29,1.487,1.487,0,0,1,.306-.249,2.309,2.309,0,0,1,.487-.26.732.732,0,0,1,.3-.057,1.337,1.337,0,0,1,.353.047,1.578,1.578,0,0,1,.348.155,2.331,2.331,0,0,1,.249-.2l.1.047a4.134,4.134,0,0,0-.057.436c-.016.285-.026.705-.026,1.26,0,.685,0,1.1.01,1.271,0,.13.016.207.042.228a.647.647,0,0,0,.316.052v.2c-.249-.01-.467-.016-.648-.016Q5710.579,6902.474,5710.244,6902.49Zm.41-1.882v-1.048a.71.71,0,0,0-.233-.2.564.564,0,0,0-.28-.067.444.444,0,0,0-.4.2,1.055,1.055,0,0,0-.135.586.988.988,0,0,0,.161.6.5.5,0,0,0,.4.2.557.557,0,0,0,.265-.067A.63.63,0,0,0,5710.654,6900.607Z" transform="translate(-5679.396 -6863.225)" fill="#727271"/><path d="M6326,6896.4v-.182a3.548,3.548,0,0,0,.695-.135l.233-.083c.031,0,.042.016.042.052l-.005.14c-.031.363-.042.711-.042,1.048a1.924,1.924,0,0,0,.031.431.331.331,0,0,0,.119.166.433.433,0,0,0,.233.057.509.509,0,0,0,.291-.088.383.383,0,0,0,.161-.2,4.52,4.52,0,0,0,.026-.633,4.024,4.024,0,0,0-.016-.487c-.005-.021-.016-.042-.031-.047a1.2,1.2,0,0,0-.316-.036v-.182a3.6,3.6,0,0,0,.705-.13l.249-.088c.026,0,.042.016.042.052l-.005.063c-.026.274-.036.767-.036,1.488a3.028,3.028,0,0,0,.016.409.1.1,0,0,0,.036.057,1.021,1.021,0,0,0,.3.042v.192c-.177-.01-.358-.016-.534-.016-.146,0-.28.005-.4.016l-.021-.042c.005-.078.01-.2.016-.368a4.15,4.15,0,0,0-.42.384.787.787,0,0,1-.332.072.765.765,0,0,1-.374-.083.57.57,0,0,1-.238-.228.82.82,0,0,1-.078-.395l.005-.254c0-.161.01-.285.01-.389a2.984,2.984,0,0,0-.021-.5.1.1,0,0,0-.047-.078A1.383,1.383,0,0,0,6326,6896.4Z" transform="translate(-6293.197 -6860.24)" fill="#727271"/><path d="M6974.659,6681a.357.357,0,0,1,.259.108.375.375,0,0,1,.1.26.365.365,0,0,1-.1.259.357.357,0,0,1-.259.109.342.342,0,0,1-.259-.109.35.35,0,0,1-.109-.259.359.359,0,0,1,.109-.26A.342.342,0,0,1,6974.659,6681Zm-.659,3.417v-.192a1.106,1.106,0,0,0,.312-.031.173.173,0,0,0,.052-.135c.011-.1.021-.316.021-.653,0-.145,0-.28-.01-.4l-.006-.275c0-.093-.01-.145-.031-.166a.238.238,0,0,0-.155-.036l-.182-.01v-.182a3.058,3.058,0,0,0,.934-.2l.063.046c-.026.3-.037.736-.037,1.312,0,.332.005.529.016.6a.158.158,0,0,0,.046.093,1.265,1.265,0,0,0,.306.042v.192c-.285-.01-.5-.016-.659-.016Q6974.544,6684.4,6974,6684.417Z" transform="translate(-6937.836 -6646.355)" fill="#727271"/><path d="M7336,6901.287v-.192a1.758,1.758,0,0,0,.275-.026.124.124,0,0,0,.041-.046.721.721,0,0,0,.031-.249c0-.229.01-.436.01-.627,0-.363-.005-.576-.015-.643a.1.1,0,0,0-.042-.083.9.9,0,0,0-.3-.036v-.182a3.359,3.359,0,0,0,.68-.114l.243-.088c.021,0,.031.016.031.047v.031c0,.1-.01.239-.01.425.083-.078.166-.176.264-.29a.651.651,0,0,1,.187-.171.419.419,0,0,1,.212-.042.5.5,0,0,1,.15.026c-.01.156-.021.368-.025.643l-.1.036a.371.371,0,0,0-.119-.13.321.321,0,0,0-.166-.036.425.425,0,0,0-.244.073.314.314,0,0,0-.125.166,2.665,2.665,0,0,0-.021.482c0,.4.005.633.016.7a.106.106,0,0,0,.047.088.942.942,0,0,0,.348.052v.192l-.265-.005c-.166,0-.312-.01-.431-.01s-.249,0-.4.01Z" transform="translate(-7297.959 -6863.225)" fill="#727271"/><path d="M7796.918,6900.83l.067.067-.109.229a1.457,1.457,0,0,1-.772.207,1.091,1.091,0,0,1-.809-.3,1.132,1.132,0,0,1-.3-.834,1.482,1.482,0,0,1,.088-.565.69.69,0,0,1,.229-.3,2.562,2.562,0,0,1,.373-.229,1,1,0,0,1,.461-.108.931.931,0,0,1,.638.218.861.861,0,0,1,.254.689c0,.042-.005.1-.011.182l-.384.067c-.119.01-.29.016-.519.016h-.508a.931.931,0,0,0,.238.606.737.737,0,0,0,.529.208.929.929,0,0,0,.265-.042A1.176,1.176,0,0,0,7796.918,6900.83Zm-1.312-.912a3.812,3.812,0,0,0,.425.021,3.416,3.416,0,0,0,.389-.021v-.109a.655.655,0,0,0-.1-.42.351.351,0,0,0-.285-.135.386.386,0,0,0-.223.063.392.392,0,0,0-.135.176A1.617,1.617,0,0,0,7795.606,6899.918Z" transform="translate(-7754.58 -6863.225)" fill="#727271"/><path d="M8532.031,7062.54l-.031-.047a2.4,2.4,0,0,0,.156-.493c.29.011.528.016.71.016s.415,0,.663-.016l.031.047a5.04,5.04,0,0,0-.165.493q-.39-.015-.7-.016C8532.488,7062.524,8532.265,7062.529,8532.031,7062.54Z" transform="translate(-8487.758 -7025.379)" fill="#727271"/><path d="M9176.141,6707.3v-.119a1.141,1.141,0,0,0,.228-.135c.031-.244.047-.763.047-1.545,0-.54,0-.892-.016-1.068a.29.29,0,0,0-.046-.176.929.929,0,0,0-.354-.062V6704c.373.01.664.016.877.016l1.3-.016c.14,0,.259,0,.368.016l.021.026a4.722,4.722,0,0,0-.072.679h-.187a2.134,2.134,0,0,0-.031-.368.3.3,0,0,0-.1-.042,3.367,3.367,0,0,0-.6-.042c-.13,0-.285,0-.462.016-.021.487-.03.876-.03,1.162.166.01.321.016.472.016a1.791,1.791,0,0,0,.389-.021.093.093,0,0,0,.057-.067,2.01,2.01,0,0,0,.036-.3h.2c-.011.264-.016.44-.016.518l.016.529h-.2a1.438,1.438,0,0,0-.046-.358.079.079,0,0,0-.062-.036,2.824,2.824,0,0,0-.528-.026c-.089,0-.187,0-.307.01,0,.088,0,.171,0,.259,0,.446.011.793.025,1.032l.467.005a5.4,5.4,0,0,0,.731-.042c.036-.145.072-.306.108-.493h.2a7.191,7.191,0,0,0-.062.8c-.146.01-.28.016-.415.016-.083,0-.255,0-.509-.005-.238-.005-.456-.01-.653-.01C9176.705,6707.282,9176.431,6707.287,9176.141,6707.3Z" transform="translate(-9128.418 -6669.236)" fill="#727271"/><path d="M9806,6901.287v-.192a.719.719,0,0,0,.279-.042.169.169,0,0,0,.042-.119q.016-.241.016-.84c0-.2,0-.368-.011-.508a.479.479,0,0,0-.021-.156c0-.015-.021-.021-.036-.031a2.306,2.306,0,0,0-.27-.016v-.182a2.3,2.3,0,0,0,.394-.057,2.778,2.778,0,0,0,.452-.125l.062-.021c.026,0,.036.016.036.052l0,.021c0,.047,0,.161,0,.343l.362-.307a.407.407,0,0,1,.141-.083,1.155,1.155,0,0,1,.254-.026.837.837,0,0,1,.4.083.545.545,0,0,1,.233.238,1.19,1.19,0,0,1,.072.472c0,.1,0,.208,0,.332-.011.254-.011.472-.011.659a.559.559,0,0,0,.026.218.085.085,0,0,0,.052.057,1.557,1.557,0,0,0,.26.036v.192l-.291-.01-.187,0-.487.015-.025-.031a6.678,6.678,0,0,0,.062-.918,2.051,2.051,0,0,0-.072-.736.351.351,0,0,0-.343-.177.473.473,0,0,0-.274.078.4.4,0,0,0-.155.176.952.952,0,0,0-.016.239c0,.565,0,.892,0,.975s.021.135.041.15a.772.772,0,0,0,.316.052v.192c-.27-.01-.5-.015-.689-.015C9806.5,6901.271,9806.29,6901.276,9806,6901.287Z" transform="translate(-9755.151 -6863.225)" fill="#727271"/><path d="M10445.432,6899.472h-.394a.672.672,0,0,1,.036.213.719.719,0,0,1-.312.643,1.206,1.206,0,0,1-.721.213,1.475,1.475,0,0,1-.192-.011.6.6,0,0,0-.134.1.128.128,0,0,0-.031.083c0,.078.052.125.161.14.057,0,.373.01.953.01a1.121,1.121,0,0,1,.4.052.39.39,0,0,1,.187.182.7.7,0,0,1,.073.337,1.017,1.017,0,0,1-.374.793,1.5,1.5,0,0,1-1.011.321,1.392,1.392,0,0,1-.8-.191.568.568,0,0,1-.27-.482.5.5,0,0,1,.083-.285,1.075,1.075,0,0,1,.259-.177l.172-.1a.524.524,0,0,1-.255-.1.234.234,0,0,1-.067-.182.7.7,0,0,1,.094-.306l.078-.046c.088-.062.176-.125.254-.192a.772.772,0,0,1-.39-.259.667.667,0,0,1-.118-.415.747.747,0,0,1,.274-.591,1.208,1.208,0,0,1,.777-.228,1.861,1.861,0,0,1,.436.047,1.008,1.008,0,0,1,.275.135,6.608,6.608,0,0,0,.674-.016l.042.052A2.277,2.277,0,0,0,10445.432,6899.472Zm-1.716.2a.848.848,0,0,0,.1.5.346.346,0,0,0,.295.146.315.315,0,0,0,.275-.13.614.614,0,0,0,.1-.389.723.723,0,0,0-.1-.43.344.344,0,0,0-.285-.135.37.37,0,0,0-.285.12A.477.477,0,0,0,10443.716,6899.669Zm.057,1.675a1.084,1.084,0,0,0-.259.244.406.406,0,0,0-.058.223.446.446,0,0,0,.177.368.814.814,0,0,0,.519.14,1.017,1.017,0,0,0,.42-.078.566.566,0,0,0,.259-.218.556.556,0,0,0,.088-.3.414.414,0,0,0-.072-.259.216.216,0,0,0-.14-.1,4.4,4.4,0,0,0-.524-.021Z" transform="translate(-10388.849 -6863.225)" fill="#727271"/><path d="M11040.132,6901.095v.192l-.182-.005c-.1,0-.192-.01-.291-.01-.146,0-.285,0-.42.015l-.021-.026.021-.321-.487.368a1.375,1.375,0,0,1-.233.025.49.49,0,0,1-.384-.145.609.609,0,0,1-.135-.436.588.588,0,0,1,.182-.493,2.778,2.778,0,0,1,1.058-.337.722.722,0,0,0-.093-.4.472.472,0,0,0-.4-.171.567.567,0,0,0-.13.016.825.825,0,0,0-.135.047l-.1.249-.166-.042,0-.1v-.1l0-.094a3.215,3.215,0,0,1,.519-.28,1.049,1.049,0,0,1,.321-.042,1.016,1.016,0,0,1,.451.083.547.547,0,0,1,.254.228.89.89,0,0,1,.078.42c0,.078,0,.212,0,.41s-.011.368-.011.493a2.314,2.314,0,0,0,.016.363.094.094,0,0,0,.047.057A1,1,0,0,0,11040.132,6901.095Zm-.893-.97a1.4,1.4,0,0,0-.539.2.34.34,0,0,0-.124.28.3.3,0,0,0,.082.228.28.28,0,0,0,.2.083.54.54,0,0,0,.378-.212Z" transform="translate(-10980.763 -6863.225)" fill="#727271"/><path d="M11569.432,6899.472h-.395a.785.785,0,0,1,.031.213.728.728,0,0,1-.306.643,1.216,1.216,0,0,1-.721.213,1.4,1.4,0,0,1-.192-.011.682.682,0,0,0-.14.1.123.123,0,0,0-.025.083q0,.116.155.14c.057,0,.379.01.954.01a1.134,1.134,0,0,1,.4.052.407.407,0,0,1,.182.182.649.649,0,0,1,.078.337,1.007,1.007,0,0,1-.379.793,1.5,1.5,0,0,1-1.011.321,1.408,1.408,0,0,1-.8-.191.576.576,0,0,1-.264-.482.5.5,0,0,1,.077-.285,1.067,1.067,0,0,1,.26-.177l.171-.1a.542.542,0,0,1-.254-.1.251.251,0,0,1-.062-.182.762.762,0,0,1,.088-.306l.078-.046a2.363,2.363,0,0,0,.254-.192.819.819,0,0,1-.389-.259.7.7,0,0,1-.119-.415.738.738,0,0,1,.28-.591,1.183,1.183,0,0,1,.772-.228,1.8,1.8,0,0,1,.436.047.945.945,0,0,1,.275.135,6.725,6.725,0,0,0,.679-.016l.041.052A1.447,1.447,0,0,0,11569.432,6899.472Zm-1.722.2a.888.888,0,0,0,.1.5.364.364,0,0,0,.3.146.321.321,0,0,0,.275-.13.646.646,0,0,0,.1-.389.719.719,0,0,0-.1-.43.339.339,0,0,0-.285-.135.374.374,0,0,0-.286.12A.477.477,0,0,0,11567.71,6899.669Zm.058,1.675a1.02,1.02,0,0,0-.254.244.409.409,0,0,0-.062.223.445.445,0,0,0,.176.368.825.825,0,0,0,.519.14,1.011,1.011,0,0,0,.42-.078.582.582,0,0,0,.265-.218.552.552,0,0,0,.083-.3.447.447,0,0,0-.067-.259.239.239,0,0,0-.145-.1,4.3,4.3,0,0,0-.52-.021Z" transform="translate(-11507.02 -6863.225)" fill="#727271"/><path d="M12165.918,6900.83l.068.067-.109.229a1.466,1.466,0,0,1-.363.155,1.483,1.483,0,0,1-.409.052,1.1,1.1,0,0,1-.81-.3,1.134,1.134,0,0,1-.295-.834,1.615,1.615,0,0,1,.083-.565.7.7,0,0,1,.233-.3,2.644,2.644,0,0,1,.373-.229,1,1,0,0,1,.462-.108.932.932,0,0,1,.638.218.861.861,0,0,1,.254.689c0,.042,0,.1-.01.182l-.389.067c-.115.01-.291.016-.514.016h-.509a.931.931,0,0,0,.239.606.736.736,0,0,0,.528.208.924.924,0,0,0,.265-.042A1.163,1.163,0,0,0,12165.918,6900.83Zm-1.311-.912a3.791,3.791,0,0,0,.424.021,3.479,3.479,0,0,0,.39-.021v-.109a.694.694,0,0,0-.1-.42.354.354,0,0,0-.286-.135.385.385,0,0,0-.223.063.4.4,0,0,0-.135.176A1.587,1.587,0,0,0,12164.607,6899.918Z" transform="translate(-12100.924 -6863.225)" fill="#727271"/><path d="M12901.031,7062.54l-.031-.047a2.4,2.4,0,0,0,.156-.493c.29.011.528.016.71.016s.415,0,.664-.016l.031.047a4.78,4.78,0,0,0-.166.493q-.39-.015-.7-.016C12901.487,7062.524,12901.265,7062.529,12901.031,7062.54Z" transform="translate(-12834.103 -7025.379)" fill="#727271"/><path d="M13554.127,6697.188V6697c.29.005.544.011.767.011s.431-.005.669-.011v.15c-.067.026-.135.052-.2.078-.015.161-.025.3-.025.4,0,.083.011.239.025.477a5.285,5.285,0,0,1-.777.228,3.367,3.367,0,0,1-.653.057,2.04,2.04,0,0,1-1.421-.467,1.6,1.6,0,0,1-.514-1.224,1.568,1.568,0,0,1,.524-1.234,2.187,2.187,0,0,1,1.5-.467,3.917,3.917,0,0,1,.663.057,3.283,3.283,0,0,1,.607.161l.021.036a5.515,5.515,0,0,0-.1.747h-.2a2.886,2.886,0,0,0-.026-.395.928.928,0,0,0-.39-.264,1.625,1.625,0,0,0-.56-.083,1.292,1.292,0,0,0-.964.363,1.385,1.385,0,0,0-.358,1.006,1.576,1.576,0,0,0,.379,1.094,1.207,1.207,0,0,0,.934.415,1.551,1.551,0,0,0,.627-.145c.011-.12.016-.233.016-.342,0-.239-.011-.374-.042-.4A1.736,1.736,0,0,0,13554.127,6697.188Z" transform="translate(-13481.727 -6660.282)" fill="#727271"/><path d="M14363,6901.287v-.192a1.775,1.775,0,0,0,.275-.026.116.116,0,0,0,.041-.046.615.615,0,0,0,.031-.249c0-.229.01-.436.01-.627,0-.363,0-.576-.016-.643a.089.089,0,0,0-.041-.083.905.905,0,0,0-.3-.036v-.182a3.359,3.359,0,0,0,.68-.114l.243-.088c.021,0,.031.016.031.047v.031c0,.1-.011.239-.011.425a3.048,3.048,0,0,0,.265-.29.671.671,0,0,1,.187-.171.432.432,0,0,1,.213-.042.481.481,0,0,1,.15.026c-.01.156-.021.368-.025.643l-.1.036a.373.373,0,0,0-.12-.13.32.32,0,0,0-.165-.036.4.4,0,0,0-.239.073.3.3,0,0,0-.13.166,3.494,3.494,0,0,0-.021.482c0,.4,0,.633.016.7.011.046.021.072.047.088a.94.94,0,0,0,.347.052v.192l-.259-.005c-.171,0-.312-.01-.436-.01s-.249,0-.405.01Z" transform="translate(-14288.521 -6863.225)" fill="#727271"/><path d="M14824,6900.167a1.2,1.2,0,0,1,.26-.834,1.168,1.168,0,0,1,.9-.332,1.2,1.2,0,0,1,.861.264,1.132,1.132,0,0,1,.269.84,1.253,1.253,0,0,1-.312.913,1.154,1.154,0,0,1-.865.316,1.1,1.1,0,0,1-.83-.3A1.21,1.21,0,0,1,14824,6900.167Zm.648-.161a1.851,1.851,0,0,0,.16.892.407.407,0,0,0,.374.208.389.389,0,0,0,.343-.177,1.212,1.212,0,0,0,.119-.633,1.81,1.81,0,0,0-.15-.871.407.407,0,0,0-.374-.2.4.4,0,0,0-.342.182A1.008,1.008,0,0,0,14824.648,6900.006Z" transform="translate(-14747.131 -6863.225)" fill="#727271"/><path d="M15378,6897.254v-.191c.2.01.441.016.742.016.213,0,.409-.005.58-.016v.191l-.155.011a.335.335,0,0,0-.155.021.075.075,0,0,0-.031.067c0,.016.031.135.082.353l.234.846.467-1.037c.109-.239.187-.41.223-.514h.249c.108.3.327.809.663,1.551l.213-.628a3.279,3.279,0,0,0,.156-.56.086.086,0,0,0-.042-.078,1.657,1.657,0,0,0-.3-.031v-.191c.224.01.395.016.52.016s.29-.005.461-.016v.191a.712.712,0,0,0-.229.031.276.276,0,0,0-.057.067,7.8,7.8,0,0,0-.316.835c-.119.342-.238.716-.357,1.11h-.384c-.177-.446-.394-.939-.644-1.478-.274.555-.492,1.047-.664,1.478h-.389c-.066-.285-.17-.669-.306-1.151s-.223-.747-.249-.793a.126.126,0,0,0-.047-.057A.965.965,0,0,0,15378,6897.254Z" transform="translate(-15298.258 -6861.235)" fill="#727271"/><g transform="translate(35.183 0)"><path d="M7858.021,119.063c.5.462,1.924,1.644,2.671,2.271a20.821,20.821,0,0,1,3.36,3.495c.181.218.368.441.555.664h3.9c-.374-.342-.783-.705-1.224-1.094-3.334-2.914-3.941-3.371-4.512-3.967s-1.727-2.2-2.344-3.018a65.273,65.273,0,0,0-5.051-5.32,17.683,17.683,0,0,0-4.765-3.552,5.271,5.271,0,0,0-1.685-.275c-.446.109-1.006.4-.321,1.151S7857.519,118.607,7858.021,119.063Z" transform="translate(-7842.776 -107.686)" fill="#f29015" fill-rule="evenodd"/><path d="M7569.736,1604a14.717,14.717,0,0,0-13.736,9.489h.389a14.325,14.325,0,0,1,26.7,0h.389A14.718,14.718,0,0,0,7569.736,1604Z" transform="translate(-7552.002 -1595.681)" fill="#f29015"/><path d="M6785.752,886.28a17.765,17.765,0,0,1,33.97,0h.747a18.481,18.481,0,0,0-35.469,0Z" transform="translate(-6785 -868.472)" fill="#f29015"/><path d="M9993.913,13.126h0c1.125-1.11,2.162-2.105,2.577-2.489a2.571,2.571,0,0,1,1.55-.861c.633-.223,1.483.026,2.525-.736a47.149,47.149,0,0,0,4.75-5.274c1.856-2.188,1.457-1.83,1.172-1.55s-5.3,5.248-5.61,5.471a.34.34,0,0,1-.478-.451c.187-.239.343-.415,1.364-1.561s4.039-4.434,3.967-4.48-5.543,5.388-5.812,5.637c-.244.228-.369.047-.41.005l-.01-.005c-.042-.041-.233-.161-.006-.4.26-.264,5.8-5.621,5.756-5.688s-3.412,2.883-4.584,3.889-1.358,1.156-1.6,1.338-.7-.14-.478-.446,5.3-5.217,5.585-5.5.658-.669-1.587,1.156a48.064,48.064,0,0,0-5.4,4.657c-.778,1.022-.5,1.83-.722,2.442a2.424,2.424,0,0,1-.876,1.509c-.394.415-1.431,1.452-2.593,2.572h0Z" transform="translate(-9976.365 0.212)" fill="#f29015"/><path d="M8831.743,2508.823c.233-.285.462-.555.674-.809.633-.747,1.9-2.038,3.127-3.262l-.928-.752c-1.229,1.182-2.521,2.391-3.272,3-.68.555-1.524,1.2-2.344,1.82Z" transform="translate(-8818.401 -2491.015)" fill="#f29015"/></g></g></g></svg>