<svg xmlns="http://www.w3.org/2000/svg" width="161.319" height="75.682" viewBox="0 0 161.319 75.682"><g transform="translate(-39.899 -399.739)"><path d="M4415.9,3428H4298v1.527h117.9Z" transform="translate(-4215.211 -2994.052)" fill="#f29015" fill-rule="evenodd"/><path d="M4415.9,6122H4298v1.517h117.9Z" transform="translate(-4215.211 -5661.168)" fill="#f29015" fill-rule="evenodd"/><path d="M4339.254,3797.245c1.775.081,5.158.1,10.138.081a5.339,5.339,0,0,0,1.4-.28c.13-.03.209.01.229.119l-.229,2.046-.079,1.457a.393.393,0,0,1-.241.329l-.258-.119a3.131,3.131,0,0,0-.28-1.437,1.481,1.481,0,0,0-.659-.5,7.956,7.956,0,0,0-1.637-.23l-2.942-.04-.04.081.04,6.915,4.349-.03.769-.2.549-.538c.148,0,.239.05.27.159-.149,1.1-.25,2.415-.311,3.932-.049.189-.108.278-.189.278l-.279-.079a3.053,3.053,0,0,0-.27-1.467,1.391,1.391,0,0,0-.739-.548,23.62,23.62,0,0,0-4.189-.11v6.686c.08.7.27,1.137.578,1.317a3.977,3.977,0,0,0,1.277.339,8.082,8.082,0,0,0,3.582-.3l.54-.458.35-.739.159-.888c.1-.209.249-.259.419-.16l.089.339c-.029.708-.129,1.606-.279,2.724-.13.828-.579,1.148-1.367.958l-6.366-.149-4.16.03-.18-.15c-.03-.149-.012-.248.068-.269l1.248-.15c.31-.03.53-.358.659-1.007a20.17,20.17,0,0,0,.16-3.143V3799.52a2.031,2.031,0,0,0-.4-1.4,1.466,1.466,0,0,0-.848-.339l-1.087-.04a.255.255,0,0,1-.2-.28C4339,3797.294,4339.125,3797.215,4339.254,3797.245Z" transform="translate(-4255.697 -3359.405)" fill="#fff"/><path d="M5847.549,3804.144a.441.441,0,0,1,.5.149,32.6,32.6,0,0,1,1.587,3.274l5.438,11.6,6.835-14.829a.428.428,0,0,1,.57-.15.983.983,0,0,1,.239.489l2.314,16.386c.181,1.068.471,1.727.879,1.976a4.119,4.119,0,0,0,1.018.31l1.067.069.12.11c0,.18-.1.29-.3.35q-6.091,0-6.087-.35v-.179l.26-.2a.306.306,0,0,0,.159-.26v-.758l-1.486-11.176h-.109l-5.669,12.233c-.279.539-.479.769-.608.689-.129.049-.509-.559-1.148-1.826l-2.464-5.019-2.583-5.779-.111-.039-1.336,10.637c-.091.668.009,1.088.309,1.257a5.479,5.479,0,0,0,1.716.309c.12.1.159.2.11.3l-.229.16q-3.158-.09-5.668,0l-.181-.189c-.029-.131-.009-.21.07-.23l1.178-.149c.459-.2.758-.879.917-2.016l2.427-16.694C5847.409,3804.293,5847.5,3804.144,5847.549,3804.144Z" transform="translate(-5744.474 -3366.424)" fill="#fff"/><path d="M8608.886,3814.737v6.746l.066.12.4.08c1.378.08,2.255-.07,2.613-.43a3.672,3.672,0,0,0,1.05-2.315,5.3,5.3,0,0,0-.809-3.223,2.958,2.958,0,0,0-1.856-1.2l-1.315.03Zm0,8.092v7.215a2.152,2.152,0,0,0,.229,1.047,2.854,2.854,0,0,0,1.656.738q3.324.314,3.78-2.824a6.967,6.967,0,0,0-1.235-4.46,5.376,5.376,0,0,0-1.578-1.4,6.877,6.877,0,0,0-1.585-.359Zm-5.21-9.439,5.019.08,2.116-.08a8.732,8.732,0,0,1,1.706.229,3.8,3.8,0,0,1,3.164,3.413l-.08,1.237a6,6,0,0,1-2.426,3.533l1.187.538a6.269,6.269,0,0,1,3.058,3.413,5.862,5.862,0,0,1,.039,3.212c-.9,2.654-3.057,4.021-6.449,4.112l-2.822-.17-4.281.041-.189-.159c-.03-.151,0-.24.069-.26l1.235-.16c.31-.031.531-.36.663-1a21.069,21.069,0,0,0,.146-3.144v-12.553a2.017,2.017,0,0,0-.376-1.4,1.6,1.6,0,0,0-.859-.349l-1.079-.03c-.148-.049-.218-.149-.188-.279C8603.427,3813.44,8603.548,3813.36,8603.676,3813.39Z" transform="translate(-8477.568 -3375.59)" fill="#fff"/><path d="M10260.916,3808.19v8.4c.131.18.638.331,1.517.43a5.113,5.113,0,0,0,1.947-.16c1.158-.648,1.794-1.946,1.927-3.872.027-2.855-1.1-4.531-3.365-5.03C10261.775,3807.881,10261.1,3807.961,10260.916,3808.19Zm-5.228-1.516,4.721.08,3.162-.08a12.424,12.424,0,0,1,1.984.239,4.807,4.807,0,0,1,2.735,1.556,5.034,5.034,0,0,1,1.019,2.535,6.515,6.515,0,0,1-.9,3.6,9.2,9.2,0,0,1-1.1,1.4l-1.317,1.257,4.052,5.229a19.1,19.1,0,0,0,2.264,2.425l.43.3a4.572,4.572,0,0,0,2.427.708c.158.1.169.249.037.428l-.427.081c-1.338.03-2.6,0-3.834-.081a4.1,4.1,0,0,1-2.065-.977,14.115,14.115,0,0,1-2.074-2.425l-2.915-4.25a.744.744,0,0,0-.519-.39,14.445,14.445,0,0,0-2.455,0,37.535,37.535,0,0,0,.229,6.826c.211.389.379.587.51.587l1.837.24c.108.26.05.4-.151.43q-4.266-.091-7.423,0l-.2-.16c-.021-.16,0-.25.08-.27l1.248-.16c.318-.03.538-.359.667-1.007a20.018,20.018,0,0,0,.151-3.173v-12.644a1.981,1.981,0,0,0-.391-1.407,1.47,1.47,0,0,0-.857-.35l-1.088-.039c-.16-.051-.229-.141-.2-.27C10255.428,3806.724,10255.559,3806.654,10255.688,3806.674Z" transform="translate(-10113.087 -3368.944)" fill="#fff"/><path d="M12459.668,3808.752a18.3,18.3,0,0,0,.111,2.484,11.856,11.856,0,0,0,1.056,3.482,7.87,7.87,0,0,0,2.646,3.024,9.234,9.234,0,0,0,2.914.978,6.224,6.224,0,0,0,2.913-.419q3.054-1.437,3.461-6.5a11.718,11.718,0,0,0-1.684-7.454,7.041,7.041,0,0,0-4.89-2.864,6.481,6.481,0,0,0-2.974.45Q12459.885,3803.524,12459.668,3808.752Zm5.929-8.512a13.074,13.074,0,0,1,4.688.569q5.555,2.005,5.97,8.242a10.8,10.8,0,0,1-2.877,8.164,9.545,9.545,0,0,1-3.32,2.146,11.547,11.547,0,0,1-7.714.079q-5.435-2.156-6.077-8.69a10.408,10.408,0,0,1,2.724-7.674A9.773,9.773,0,0,1,12465.6,3800.24Z" transform="translate(-12292.062 -3362.56)" fill="#fff"/><path d="M14658.571,3814.43a29.845,29.845,0,0,1,.508-4.041l.189-.39h.348l.58.161,1.8.079h10.715a.565.565,0,0,1,.309.19,1.7,1.7,0,0,1-.309.728l-5.887,9.549-4.711,7.365v.04h6.627a8.688,8.688,0,0,0,1.813-.279l.809-.34.35-.279a3.141,3.141,0,0,0,.609-1.038c.16-.719.273-1.087.35-1.117.229-.05.359.07.379.359a13.511,13.511,0,0,1-.537,3.771.737.737,0,0,1-.3.419l-.242.081-9-.12h-4.549c-.227,0-.365-.05-.418-.15v-.31l.109-.269q9.059-14.325,10.75-17.184h-6.127a12.52,12.52,0,0,0-1.729.269,2.535,2.535,0,0,0-1.316.889l-.459.849-.15.768c-.08.18-.178.26-.311.229l-.119-.04Z" transform="translate(-14471.833 -3372.239)" fill="#fff"/><path d="M7.424,3164.624l4.68,3.3a1.348,1.348,0,0,0,.03,2.036l6.386,5.8,6.426-6.436-3.882-3.214s-.309-.449-.718.11c-1.357,1.886-3.882-.589-3.882-2.665L7.424,3157H0v31.1l7.424-.589Z" transform="translate(39.899 -2725.756)" fill="#fff" fill-rule="evenodd"/><path d="M1745.657,3157h7.414v30.516h-7.414v-22.343l-5.2,4.311-4.591-3.921s-.948-.489-1.187.01c-1.287,2.7-5.139-2.226-1.6-2.724a5.59,5.59,0,0,1,2.236.07c1.177.409,2.415.848,3.153.239l7.184-5.948Z" transform="translate(-1674.445 -2725.756)" fill="#fff" fill-rule="evenodd"/><path d="M1036.023,4541.773l-1.466,1.466a.905.905,0,0,1-1.287,0h0a.916.916,0,0,1,0-1.3l1.427-1.426a.046.046,0,0,1,.07,0Z" transform="translate(-982.793 -4095.45)" fill="#fff" fill-rule="evenodd"/><path d="M1217.766,4703.772l-1.457,1.457a.915.915,0,0,1-1.3,0h0a.922.922,0,0,1,0-1.287l1.427-1.427a.049.049,0,0,1,.07,0Z" transform="translate(-1162.729 -4255.833)" fill="#fff" fill-rule="evenodd"/><path d="M1398.776,4864.773l-1.466,1.466a.934.934,0,0,1-1.3,0h0a.933.933,0,0,1,0-1.3l1.437-1.427a.047.047,0,0,1,.07,0Z" transform="translate(-1341.923 -4415.226)" fill="#fff" fill-rule="evenodd"/><path d="M1580.024,5025.773l-1.467,1.467a.9.9,0,0,1-1.287,0h0a.9.9,0,0,1,0-1.287l1.427-1.437a.048.048,0,0,1,.07,0Z" transform="translate(-1521.364 -4574.621)" fill="#fff" fill-rule="evenodd"/><path d="M1851,4899.258l1.546,1.377a.914.914,0,0,0,1.287-.081h0a.913.913,0,0,0-.07-1.288l-1.516-1.345c-.02-.021-.05-.011-.07.009Z" transform="translate(-1792.63 -4449.294)" fill="#fff" fill-rule="evenodd"/><path d="M2015,4728.852l1.547,1.368a.913.913,0,0,0,1.287-.069h0a.919.919,0,0,0-.08-1.3l-1.507-1.337a.049.049,0,0,0-.07,0Z" transform="translate(-1954.994 -4280.584)" fill="#fff" fill-rule="evenodd"/><path d="M2182,4550.688l1.547,1.377a.916.916,0,0,0,1.287-.081h0a.913.913,0,0,0-.07-1.287l-1.517-1.346a.061.061,0,0,0-.07.009Z" transform="translate(-2120.327 -4104.206)" fill="#fff" fill-rule="evenodd"/><path d="M2364,4387.237l1.467,1.188a.935.935,0,0,0,1.3-.089h0a.938.938,0,0,0-.1-1.3l-1.338-1.117a.048.048,0,0,0-.07.01Z" transform="translate(-2300.511 -3942.403)" fill="#fff" fill-rule="evenodd"/><path d="M4422,6704.989a1.333,1.333,0,0,0,.518-.081,1.029,1.029,0,0,0,.221-.35c.18-.39.419-.937.7-1.636l1.607-3.922h.668l2.036,4.86a6.316,6.316,0,0,0,.489,1.007,1.177,1.177,0,0,0,.579.123v.407c-.5-.019-.958-.028-1.4-.028-.52,0-1.019.009-1.487.028v-.407a2.309,2.309,0,0,0,.618-.062.131.131,0,0,0,.08-.129,2.777,2.777,0,0,0-.189-.58l-.3-.757c-.37-.012-.789-.012-1.248-.012-.4,0-.769,0-1.088.012l-.2.509a6.337,6.337,0,0,0-.2.618.593.593,0,0,0-.03.171.154.154,0,0,0,.089.148,4.467,4.467,0,0,0,.628.081v.407c-.29-.019-.659-.028-1.1-.028-.419,0-.749.009-1,.028Zm2.964-4.382-.958,2.325c.278.01.588.019.918.019.348,0,.688-.009,1.008-.019Z" transform="translate(-4337.974 -6232.411)" fill="#fff"/><path d="M5213.324,6900.637h-.379a2.446,2.446,0,0,0-.071-.62.532.532,0,0,0-.268-.237,1.131,1.131,0,0,0-.519-.1.857.857,0,0,0-.7.269,1.622,1.622,0,0,0-.219.988,2.1,2.1,0,0,0,.41,1.387,1.33,1.33,0,0,0,1.058.5,2.792,2.792,0,0,0,.438-.043,1.719,1.719,0,0,0,.359-.118l.07.1c-.06.14-.12.289-.179.438a2.728,2.728,0,0,1-1.237.288,1.895,1.895,0,0,1-2.086-2.1,3.524,3.524,0,0,1,.07-.668,2.006,2.006,0,0,1,.2-.508,1.347,1.347,0,0,1,.27-.35c.06-.041.319-.211.778-.5a3.133,3.133,0,0,1,.588-.31,1.631,1.631,0,0,1,.49-.061,3.043,3.043,0,0,1,.529.04,4.3,4.3,0,0,1,.508.12l.07.079A7.545,7.545,0,0,0,5213.324,6900.637Z" transform="translate(-5118.111 -6430.415)" fill="#fff"/><path d="M5711.394,6905.716v-.379c.15-.011.271-.021.34-.021a.5.5,0,0,0,.309-.061.194.194,0,0,0,.081-.107,8.172,8.172,0,0,0,.04-.95l.021-1.547a7.631,7.631,0,0,0-.62.48l-.329.269a1.24,1.24,0,0,1-.459.089,1.647,1.647,0,0,1-1.277-.527,2.1,2.1,0,0,1-.5-1.478,3.115,3.115,0,0,1,.109-.839,1.714,1.714,0,0,1,.24-.557,2.885,2.885,0,0,1,.588-.481,4.554,4.554,0,0,1,.938-.5,1.426,1.426,0,0,1,.579-.109,2.553,2.553,0,0,1,.678.092,3.009,3.009,0,0,1,.669.3,4.6,4.6,0,0,1,.479-.39l.189.092a7.709,7.709,0,0,0-.109.838c-.031.548-.051,1.355-.051,2.423,0,1.319.01,2.127.02,2.445,0,.251.031.4.08.439a1.258,1.258,0,0,0,.609.1v.379c-.479-.02-.9-.03-1.247-.03Q5712.038,6905.686,5711.394,6905.716Zm.79-3.623v-2.017a1.354,1.354,0,0,0-.45-.389,1.077,1.077,0,0,0-.539-.129.856.856,0,0,0-.77.379,2.04,2.04,0,0,0-.259,1.127,1.907,1.907,0,0,0,.31,1.158.96.96,0,0,0,.778.39,1.086,1.086,0,0,0,.509-.129A1.22,1.22,0,0,0,5712.184,6902.093Z" transform="translate(-5612.131 -6430.415)" fill="#fff"/><path d="M6326,6896.768v-.349a6.678,6.678,0,0,0,1.338-.26l.45-.159c.059,0,.079.031.079.1l-.009.269c-.059.7-.081,1.368-.081,2.017a3.755,3.755,0,0,0,.061.829.633.633,0,0,0,.23.318.827.827,0,0,0,.448.109.984.984,0,0,0,.561-.17.73.73,0,0,0,.308-.39,8.6,8.6,0,0,0,.05-1.217,7.626,7.626,0,0,0-.03-.937c-.011-.042-.031-.082-.06-.091a2.228,2.228,0,0,0-.608-.071v-.349a7.093,7.093,0,0,0,1.357-.249l.478-.17c.051,0,.081.031.081.1l-.01.12c-.05.527-.07,1.476-.07,2.862a5.758,5.758,0,0,0,.031.789.184.184,0,0,0,.07.108,1.938,1.938,0,0,0,.57.081v.369c-.34-.021-.689-.03-1.028-.03-.28,0-.54.01-.769.03l-.041-.081c.01-.149.02-.388.03-.707a8,8,0,0,0-.808.738,1.5,1.5,0,0,1-.639.141,1.459,1.459,0,0,1-.718-.16,1.079,1.079,0,0,1-.459-.439,1.565,1.565,0,0,1-.15-.759l.01-.489c.01-.31.02-.549.02-.747a5.616,5.616,0,0,0-.041-.958.2.2,0,0,0-.089-.151A2.972,2.972,0,0,0,6326,6896.768Z" transform="translate(-6222.976 -6427.445)" fill="#fff"/><path d="M6975.269,6681a.679.679,0,0,1,.5.209.716.716,0,0,1,.2.5.7.7,0,0,1-.2.5.679.679,0,0,1-.5.209.662.662,0,0,1-.5-.209.676.676,0,0,1-.209-.5.7.7,0,0,1,.209-.5A.662.662,0,0,1,6975.269,6681Zm-1.269,6.576v-.369a2.175,2.175,0,0,0,.6-.061.335.335,0,0,0,.1-.26c.021-.188.039-.607.039-1.257,0-.28-.009-.538-.018-.776l-.01-.531c0-.178-.02-.277-.061-.318a.459.459,0,0,0-.3-.07l-.35-.02v-.349a5.908,5.908,0,0,0,1.8-.39l.12.09c-.05.578-.07,1.416-.07,2.523,0,.64.01,1.019.031,1.159a.306.306,0,0,0,.089.178,2.4,2.4,0,0,0,.589.081v.369c-.549-.019-.968-.031-1.268-.031C6975.128,6687.545,6974.7,6687.557,6974,6687.576Z" transform="translate(-6864.509 -6214.591)" fill="#fff"/><path d="M7336,6903.4v-.369a3.555,3.555,0,0,0,.529-.05.259.259,0,0,0,.08-.09,1.418,1.418,0,0,0,.059-.479c.009-.439.019-.838.019-1.206,0-.7-.01-1.108-.028-1.237a.192.192,0,0,0-.08-.161,1.783,1.783,0,0,0-.578-.068v-.351a6.538,6.538,0,0,0,1.307-.218l.469-.172c.04,0,.061.031.061.092v.06c-.01.189-.021.457-.021.818.159-.15.319-.34.509-.56a1.249,1.249,0,0,1,.36-.329.8.8,0,0,1,.408-.081.963.963,0,0,1,.289.051c-.021.3-.04.709-.049,1.237l-.2.07a.717.717,0,0,0-.229-.251.619.619,0,0,0-.319-.07.829.829,0,0,0-.47.142.6.6,0,0,0-.239.319,5.277,5.277,0,0,0-.039.928c0,.769.01,1.217.03,1.338a.194.194,0,0,0,.09.168,1.779,1.779,0,0,0,.669.1v.369l-.511-.012c-.318-.008-.6-.017-.828-.017s-.479.009-.777.017Z" transform="translate(-7222.897 -6430.415)" fill="#fff"/><path d="M7798.693,6902.522l.128.129-.209.44a2.854,2.854,0,0,1-.7.3,2.783,2.783,0,0,1-.787.1,2.1,2.1,0,0,1-1.556-.567,2.171,2.171,0,0,1-.57-1.606,2.856,2.856,0,0,1,.169-1.089,1.351,1.351,0,0,1,.439-.579,5.044,5.044,0,0,1,.719-.438,1.923,1.923,0,0,1,.887-.21,1.794,1.794,0,0,1,1.228.419,1.657,1.657,0,0,1,.491,1.328c0,.08-.01.189-.021.349l-.737.131c-.229.02-.559.029-1,.029h-.977a1.785,1.785,0,0,0,.458,1.167,1.419,1.419,0,0,0,1.02.4,1.751,1.751,0,0,0,.508-.082A2.242,2.242,0,0,0,7798.693,6902.522Zm-2.526-1.756a7.554,7.554,0,0,0,.82.04,6.8,6.8,0,0,0,.748-.04v-.211a1.253,1.253,0,0,0-.2-.808.675.675,0,0,0-.547-.259.754.754,0,0,0-.431.118.782.782,0,0,0-.261.34A3.248,3.248,0,0,0,7796.167,6900.767Z" transform="translate(-7677.316 -6430.415)" fill="#fff"/><path d="M8532.06,7063.037l-.06-.09a4.525,4.525,0,0,0,.3-.948c.56.021,1.016.03,1.365.03.371,0,.8-.009,1.275-.03l.062.091a8.878,8.878,0,0,0-.315.947c-.5-.021-.952-.029-1.349-.029S8532.511,7063.017,8532.06,7063.037Z" transform="translate(-8406.963 -6591.788)" fill="#fff"/><path d="M9176.272,6710.348v-.229a2.275,2.275,0,0,0,.437-.261c.061-.47.089-1.467.089-2.975,0-1.038-.008-1.716-.028-2.055a.571.571,0,0,0-.088-.339,1.8,1.8,0,0,0-.682-.12V6704c.718.02,1.279.031,1.688.031l2.5-.031a6.978,6.978,0,0,1,.708.031l.04.05a9.1,9.1,0,0,0-.14,1.307h-.359a4.052,4.052,0,0,0-.06-.709.578.578,0,0,0-.2-.08,6.54,6.54,0,0,0-1.157-.079c-.25,0-.549.009-.891.03-.038.938-.057,1.686-.057,2.236.319.02.617.03.908.03a3.477,3.477,0,0,0,.747-.04.179.179,0,0,0,.109-.131,4.148,4.148,0,0,0,.07-.567h.389c-.02.508-.03.847-.03,1l.03,1.019h-.389a2.96,2.96,0,0,0-.088-.689.158.158,0,0,0-.123-.069,5.334,5.334,0,0,0-1.016-.05c-.17,0-.362.009-.59.02,0,.17-.01.33-.01.5,0,.857.021,1.525.048,1.984l.9.01a10.322,10.322,0,0,0,1.407-.079c.069-.28.138-.589.208-.949h.381a13.5,13.5,0,0,0-.118,1.547c-.28.019-.54.031-.8.031-.159,0-.491,0-.979-.012-.459-.01-.878-.019-1.257-.019C9177.356,6710.317,9176.83,6710.326,9176.272,6710.348Z" transform="translate(-9044.535 -6237.361)" fill="#fff"/><path d="M9806,6903.4v-.369a1.38,1.38,0,0,0,.538-.08.327.327,0,0,0,.081-.229c.021-.31.03-.847.03-1.618,0-.378-.01-.707-.021-.977a1.035,1.035,0,0,0-.038-.3c-.012-.028-.04-.039-.069-.06a5.118,5.118,0,0,0-.521-.028v-.351a4.542,4.542,0,0,0,.759-.109,5.175,5.175,0,0,0,.87-.24l.117-.04c.051,0,.07.031.07.1l-.009.04c-.011.089-.011.31-.011.659l.7-.59a.8.8,0,0,1,.272-.159,2.2,2.2,0,0,1,.488-.051,1.613,1.613,0,0,1,.777.16,1.071,1.071,0,0,1,.45.459,2.321,2.321,0,0,1,.139.908c0,.189,0,.4-.011.639-.019.489-.019.908-.019,1.268a1.071,1.071,0,0,0,.05.419.165.165,0,0,0,.1.11,3.183,3.183,0,0,0,.5.069v.369l-.561-.02-.357-.009-.938.028-.048-.06a12.827,12.827,0,0,0,.119-1.767,3.9,3.9,0,0,0-.141-1.416.676.676,0,0,0-.66-.34.9.9,0,0,0-.527.15.763.763,0,0,0-.3.338,1.9,1.9,0,0,0-.03.46c0,1.087,0,1.717.011,1.875s.04.261.078.289a1.451,1.451,0,0,0,.608.1v.369c-.519-.02-.967-.028-1.326-.028C9806.958,6903.372,9806.558,6903.381,9806,6903.4Z" transform="translate(-9668.246 -6430.415)" fill="#fff"/><path d="M10447.682,6899.908h-.759a1.28,1.28,0,0,1,.069.409,1.383,1.383,0,0,1-.6,1.236,2.3,2.3,0,0,1-1.385.41,2.714,2.714,0,0,1-.37-.021,1.1,1.1,0,0,0-.258.2.255.255,0,0,0-.062.16c0,.149.1.24.311.27.109.009.717.021,1.834.021a2.107,2.107,0,0,1,.768.1.736.736,0,0,1,.36.349,1.332,1.332,0,0,1,.142.648,1.957,1.957,0,0,1-.722,1.525,2.883,2.883,0,0,1-1.945.62,2.666,2.666,0,0,1-1.544-.369,1.1,1.1,0,0,1-.521-.928.961.961,0,0,1,.162-.55,1.986,1.986,0,0,1,.5-.34l.328-.188a1.055,1.055,0,0,1-.491-.189.462.462,0,0,1-.127-.35,1.366,1.366,0,0,1,.18-.59l.151-.089c.169-.12.338-.239.488-.368a1.483,1.483,0,0,1-.751-.5,1.284,1.284,0,0,1-.227-.8,1.441,1.441,0,0,1,.527-1.139,2.335,2.335,0,0,1,1.5-.439,3.557,3.557,0,0,1,.838.092,1.929,1.929,0,0,1,.53.258c.667,0,1.1,0,1.3-.028l.08.1A4.317,4.317,0,0,0,10447.682,6899.908Zm-3.3.379a1.631,1.631,0,0,0,.2.958.664.664,0,0,0,.566.28.607.607,0,0,0,.529-.25,1.182,1.182,0,0,0,.192-.749,1.39,1.39,0,0,0-.192-.828.657.657,0,0,0-.548-.26.705.705,0,0,0-.548.231A.908.908,0,0,0,10444.379,6900.287Zm.107,3.224a2.139,2.139,0,0,0-.5.469.786.786,0,0,0-.111.429.859.859,0,0,0,.342.709,1.564,1.564,0,0,0,1,.269,1.932,1.932,0,0,0,.807-.149,1.081,1.081,0,0,0,.669-1,.786.786,0,0,0-.142-.5.4.4,0,0,0-.267-.189,8.264,8.264,0,0,0-1.01-.04Z" transform="translate(-10298.893 -6430.415)" fill="#fff"/><path d="M11042.1,6903.031v.369l-.349-.012c-.189-.008-.371-.017-.56-.017-.283,0-.55.009-.808.028l-.04-.051.04-.617-.939.709a2.692,2.692,0,0,1-.449.048.943.943,0,0,1-.738-.277,1.171,1.171,0,0,1-.261-.838,1.134,1.134,0,0,1,.35-.949,5.356,5.356,0,0,1,2.038-.648,1.362,1.362,0,0,0-.181-.768.9.9,0,0,0-.768-.33,1.117,1.117,0,0,0-.252.029,1.713,1.713,0,0,0-.258.091l-.2.479-.319-.079.009-.2v-.2l-.009-.181a6.26,6.26,0,0,1,1-.538,2,2,0,0,1,.616-.081,1.954,1.954,0,0,1,.869.16,1.054,1.054,0,0,1,.489.438,1.71,1.71,0,0,1,.151.81c0,.148,0,.409-.009.788-.021.4-.021.708-.021.947a4.325,4.325,0,0,0,.03.7.179.179,0,0,0,.088.11A1.962,1.962,0,0,0,11042.1,6903.031Zm-1.716-1.866a2.69,2.69,0,0,0-1.039.38.651.651,0,0,0-.24.539.574.574,0,0,0,.159.438.544.544,0,0,0,.391.159,1.041,1.041,0,0,0,.729-.408Z" transform="translate(-10887.954 -6430.415)" fill="#fff"/><path d="M11571.681,6899.908h-.76a1.441,1.441,0,0,1,.062.409,1.4,1.4,0,0,1-.59,1.236,2.33,2.33,0,0,1-1.384.41,2.591,2.591,0,0,1-.371-.021,1.364,1.364,0,0,0-.271.2.236.236,0,0,0-.049.16c0,.149.1.24.3.27.109.009.73.021,1.837.021a2.134,2.134,0,0,1,.776.1.75.75,0,0,1,.35.349,1.237,1.237,0,0,1,.152.648,1.93,1.93,0,0,1-.73,1.525,2.89,2.89,0,0,1-1.945.62,2.713,2.713,0,0,1-1.55-.369,1.114,1.114,0,0,1-.507-.928.963.963,0,0,1,.149-.55,2.078,2.078,0,0,1,.5-.34l.328-.188a1.079,1.079,0,0,1-.489-.189.49.49,0,0,1-.117-.35,1.455,1.455,0,0,1,.168-.59l.15-.089a4.844,4.844,0,0,0,.489-.368,1.573,1.573,0,0,1-.749-.5,1.35,1.35,0,0,1-.229-.8,1.421,1.421,0,0,1,.537-1.139,2.3,2.3,0,0,1,1.488-.439,3.441,3.441,0,0,1,.838.092,1.812,1.812,0,0,1,.529.258c.668,0,1.108,0,1.309-.028l.075.1A3.035,3.035,0,0,0,11571.681,6899.908Zm-3.313.379a1.7,1.7,0,0,0,.2.958.7.7,0,0,0,.578.28.623.623,0,0,0,.53-.25,1.255,1.255,0,0,0,.189-.749,1.392,1.392,0,0,0-.2-.828.653.653,0,0,0-.549-.26.715.715,0,0,0-.55.231A.909.909,0,0,0,11568.367,6900.287Zm.112,3.224a1.9,1.9,0,0,0-.488.469.77.77,0,0,0-.122.429.854.854,0,0,0,.34.709,1.579,1.579,0,0,0,1,.269,1.935,1.935,0,0,0,.809-.149,1.122,1.122,0,0,0,.51-.419,1.053,1.053,0,0,0,.161-.579.849.849,0,0,0-.131-.5.454.454,0,0,0-.28-.189,7.991,7.991,0,0,0-1-.04Z" transform="translate(-11411.675 -6430.415)" fill="#fff"/><path d="M12167.691,6902.522l.131.129-.211.44a2.746,2.746,0,0,1-.7.3,2.778,2.778,0,0,1-.787.1,2.111,2.111,0,0,1-1.559-.567,2.185,2.185,0,0,1-.566-1.606,3.1,3.1,0,0,1,.16-1.089,1.354,1.354,0,0,1,.447-.579,5.214,5.214,0,0,1,.719-.438,1.931,1.931,0,0,1,.891-.21,1.8,1.8,0,0,1,1.227.419,1.666,1.666,0,0,1,.488,1.328c0,.08-.01.189-.02.349l-.748.131c-.223.02-.559.029-.986.029h-.98a1.8,1.8,0,0,0,.461,1.167,1.414,1.414,0,0,0,1.018.4,1.736,1.736,0,0,0,.508-.082A2.229,2.229,0,0,0,12167.691,6902.522Zm-2.521-1.756a7.433,7.433,0,0,0,.814.04,6.8,6.8,0,0,0,.748-.04v-.211a1.338,1.338,0,0,0-.2-.808.676.676,0,0,0-.551-.259.746.746,0,0,0-.428.118.759.759,0,0,0-.26.34A3.1,3.1,0,0,0,12165.17,6900.767Z" transform="translate(-12002.72 -6430.415)" fill="#fff"/><path d="M12901.061,7063.037l-.059-.09a4.649,4.649,0,0,0,.3-.948c.557.021,1.016.03,1.367.03.369,0,.8-.009,1.277-.03l.061.091a9.049,9.049,0,0,0-.32.947c-.5-.021-.949-.029-1.348-.029S12901.508,7063.017,12901.061,7063.037Z" transform="translate(-12732.367 -6591.788)" fill="#fff"/><path d="M13556.095,6699.212v-.371c.556.01,1.044.019,1.474.019.4,0,.829-.009,1.285-.019v.289c-.125.052-.258.1-.379.15-.027.311-.048.57-.048.78,0,.159.021.458.048.917a9.915,9.915,0,0,1-1.493.438,6.392,6.392,0,0,1-1.256.111,3.938,3.938,0,0,1-2.738-.9,3.072,3.072,0,0,1-.987-2.355,3.015,3.015,0,0,1,1.01-2.373,4.2,4.2,0,0,1,2.894-.9,7.475,7.475,0,0,1,1.274.108,6.379,6.379,0,0,1,1.169.311l.041.069a11.012,11.012,0,0,0-.2,1.439h-.389a5.683,5.683,0,0,0-.05-.76,1.815,1.815,0,0,0-.751-.508,3.117,3.117,0,0,0-1.078-.16,2.487,2.487,0,0,0-1.853.7,2.668,2.668,0,0,0-.692,1.936,3.03,3.03,0,0,0,.731,2.106,2.315,2.315,0,0,0,1.795.8,2.976,2.976,0,0,0,1.206-.28c.021-.229.029-.45.029-.659,0-.458-.019-.718-.08-.768A3.4,3.4,0,0,0,13556.095,6699.212Z" transform="translate(-13376.868 -6228.451)" fill="#fff"/><path d="M14363,6903.4v-.369a3.494,3.494,0,0,0,.527-.05.226.226,0,0,0,.08-.09,1.2,1.2,0,0,0,.059-.479c.01-.439.02-.838.02-1.206,0-.7-.01-1.108-.031-1.237a.168.168,0,0,0-.078-.161,1.782,1.782,0,0,0-.576-.068v-.351a6.591,6.591,0,0,0,1.309-.218l.469-.172c.037,0,.055.031.055.092v.06c-.008.189-.018.457-.018.818a5.652,5.652,0,0,0,.508-.56,1.3,1.3,0,0,1,.361-.329.815.815,0,0,1,.406-.081.951.951,0,0,1,.293.051c-.02.3-.041.709-.049,1.237l-.2.07a.71.71,0,0,0-.23-.251.628.628,0,0,0-.32-.07.77.77,0,0,0-.459.142.571.571,0,0,0-.25.319,6.47,6.47,0,0,0-.041.928c0,.769.014,1.217.031,1.338.023.089.039.14.092.168a1.763,1.763,0,0,0,.666.1v.369l-.5-.012c-.328-.008-.6-.017-.838-.017-.221,0-.479.009-.781.017Z" transform="translate(-14179.778 -6430.415)" fill="#fff"/><path d="M14824,6901.245a2.3,2.3,0,0,1,.5-1.606,2.246,2.246,0,0,1,1.736-.64,2.323,2.323,0,0,1,1.66.51,2.192,2.192,0,0,1,.516,1.616,2.418,2.418,0,0,1-.6,1.758,2.221,2.221,0,0,1-1.666.606,2.109,2.109,0,0,1-1.6-.567A2.334,2.334,0,0,1,14824,6901.245Zm1.248-.31a3.566,3.566,0,0,0,.307,1.716.785.785,0,0,0,.723.4.745.745,0,0,0,.656-.339,2.337,2.337,0,0,0,.23-1.219,3.478,3.478,0,0,0-.289-1.676.783.783,0,0,0-.719-.38.76.76,0,0,0-.658.35A1.952,1.952,0,0,0,14825.247,6900.936Z" transform="translate(-14636.174 -6430.415)" fill="#fff"/><path d="M15378,6897.488v-.368c.379.02.85.031,1.424.031.412,0,.791-.012,1.119-.031v.368l-.3.021a.62.62,0,0,0-.3.039.144.144,0,0,0-.062.129c0,.031.063.26.158.679l.453,1.628.9-2c.211-.46.359-.79.428-.988h.479c.209.569.629,1.556,1.277,2.983l.412-1.209a6.644,6.644,0,0,0,.3-1.076.166.166,0,0,0-.08-.15,3.346,3.346,0,0,0-.574-.061v-.368c.436.02.762.031,1,.031.26,0,.557-.012.885-.031v.368a1.339,1.339,0,0,0-.437.061.618.618,0,0,0-.111.129,14.805,14.805,0,0,0-.605,1.606c-.234.659-.459,1.38-.689,2.137h-.738c-.34-.857-.76-1.808-1.24-2.845-.525,1.068-.947,2.016-1.277,2.845h-.746c-.131-.548-.328-1.288-.592-2.215s-.428-1.437-.479-1.528a.243.243,0,0,0-.088-.107A1.874,1.874,0,0,0,15378,6897.488Z" transform="translate(-15184.648 -6428.437)" fill="#fff"/><g transform="translate(107.605 399.739)"><path d="M7867.017,129.061c.968.888,3.7,3.163,5.14,4.371s2.313,1.8,6.466,6.726c.35.419.709.848,1.069,1.277h7.514c-.719-.659-1.509-1.357-2.356-2.105-6.414-5.608-7.584-6.486-8.683-7.634s-3.322-4.241-4.51-5.808a125.249,125.249,0,0,0-9.72-10.238c-4.04-3.822-7.132-6.037-9.168-6.835a10.156,10.156,0,0,0-3.244-.529c-.859.21-1.935.768-.618,2.215S7866.049,128.183,7867.017,129.061Z" transform="translate(-7837.681 -107.166)" fill="#f29015" fill-rule="evenodd"/><path d="M7582.434,1604A28.322,28.322,0,0,0,7556,1622.261h.749a27.565,27.565,0,0,1,51.38,0h.748A28.324,28.324,0,0,0,7582.434,1604Z" transform="translate(-7548.306 -1587.992)" fill="#f29015"/><path d="M6786.446,898.556a34.186,34.186,0,0,1,65.371,0h1.437a35.564,35.564,0,0,0-68.254,0Z" transform="translate(-6785 -864.286)" fill="#f29015"/><path d="M9994.756,25.456h0c2.162-2.135,4.161-4.051,4.96-4.79a4.942,4.942,0,0,1,2.983-1.656c1.217-.429,2.854.05,4.859-1.417s5.557-5.937,9.14-10.148,2.8-3.523,2.257-2.984-10.2,10.1-10.8,10.528a.653.653,0,0,1-.918-.868c.358-.459.657-.8,2.624-3s7.773-8.532,7.632-8.622-10.663,10.368-11.184,10.847c-.471.439-.71.09-.79.01l-.019-.01c-.08-.08-.449-.309-.011-.768.5-.509,11.165-10.817,11.076-10.947s-6.566,5.548-8.82,7.484-2.615,2.225-3.074,2.575-1.345-.269-.918-.858S10013.953.788,10014.5.249s1.268-1.287-3.054,2.225-8.893,7.005-10.387,8.961-.969,3.523-1.389,4.7a4.684,4.684,0,0,1-1.687,2.9c-.756.8-2.752,2.794-4.988,4.949h0Z" transform="translate(-9960.987 0.212)" fill="#f29015"/><path d="M8834.279,2513.281c.447-.549.889-1.068,1.3-1.557,1.219-1.437,3.652-3.922,6.02-6.277l-1.787-1.447c-2.365,2.276-4.854,4.6-6.3,5.778-1.309,1.067-2.932,2.314-4.51,3.5Z" transform="translate(-8808.604 -2479.011)" fill="#f29015"/></g></g></svg>