<svg xmlns="http://www.w3.org/2000/svg" width="16.1" height="16" viewBox="0 0 16.1 16"><g transform="translate(402.223 -78)"><rect width="15.877" height="16" transform="translate(-402 78)" fill="none"/><path d="M111.853,82.932h-.44a6.855,6.855,0,0,0-5.436-6.344l.087-.842a.981.981,0,0,0-.244-.755.965.965,0,0,0-.72-.323h-.968a.965.965,0,0,0-.72.323.981.981,0,0,0-.244.755l.087.842a6.855,6.855,0,0,0-5.436,6.344h-.44a.708.708,0,0,0-.7.71v.942a.708.708,0,0,0,.7.71h14.471a.708.708,0,0,0,.7-.71v-.942a.708.708,0,0,0-.7-.71Zm-7.766-7.33a.061.061,0,0,1,.047-.021h.968a.063.063,0,0,1,.063.07l-.084.815c-.153-.01-.307-.016-.462-.016s-.31.006-.462.016l-.084-.815a.062.062,0,0,1,.014-.051Zm7.566,8.779H97.581v-.537H99.49a.457.457,0,0,0,0-.913h-.762a5.9,5.9,0,0,1,11.777,0H99.51a.453.453,0,0,0-.41.222.46.46,0,0,0,0,.469.453.453,0,0,0,.41.222h12.141Zm0,0" transform="translate(-498.8 5.832)" fill="#fff" stroke="#fff" stroke-width="0.2"/></g></svg>