<svg xmlns="http://www.w3.org/2000/svg" width="12.17" height="16" viewBox="0 0 12.17 16"><path d="M107.76,7.814c1.781,0,3.225-1.749,3.225-3.907S110.511,0,107.76,0s-3.225,1.749-3.225,3.907S105.979,7.814,107.76,7.814Z" transform="translate(-101.675)" fill="#fff"/><path d="M41.9,300.44c0-.132,0-.037,0,0Z" transform="translate(-41.895 -286.638)" fill="#fff"/><path d="M308.085,301.606c0-.036,0-.25,0,0Z" transform="translate(-295.916 -287.701)" fill="#fff"/><path d="M54.069,183.248c-.06-3.759-.551-4.83-4.313-5.508a2.645,2.645,0,0,1-3.528,0c-3.721.671-4.242,1.726-4.311,5.386-.006.3-.008.315-.009.28,0,.065,0,.185,0,.395,0,0,.9,1.8,6.084,1.8s6.084-1.8,6.084-1.8c0-.135,0-.228,0-.292A2.42,2.42,0,0,1,54.069,183.248Z" transform="translate(-41.907 -169.604)" fill="#fff"/></svg>