<svg xmlns="http://www.w3.org/2000/svg" width="16.001" height="16" viewBox="0 0 16.001 16"><path d="M15.835,6.3a.6.6,0,0,0-.5-.445L14.02,5.684c-.028-.076-.048-.127-.051-.134L13.947,5.5s-.02-.046-.053-.117L14.7,4.331a.6.6,0,0,0,.041-.67,7.434,7.434,0,0,0-1.085-1.319,7.427,7.427,0,0,0-1.318-1.084.6.6,0,0,0-.67.041l-1.049.806L10.5,2.052l-.019-.008-.049-.02-.12-.045L10.144.667A.6.6,0,0,0,9.7.164,7.5,7.5,0,0,0,8,0,7.431,7.431,0,0,0,6.3.165a.6.6,0,0,0-.445.5L5.684,1.98l-.131.05-.04.016L5.5,2.053l-.117.053L4.331,1.3a.6.6,0,0,0-.67-.041A7.429,7.429,0,0,0,2.343,2.343,7.434,7.434,0,0,0,1.258,3.662a.6.6,0,0,0,.041.67L2.105,5.38,2.052,5.5h0a.618.618,0,0,0-.03.066l-.046.121L.668,5.856a.6.6,0,0,0-.5.445A7.463,7.463,0,0,0,0,8,7.425,7.425,0,0,0,.165,9.7a.6.6,0,0,0,.5.445l1.311.172c.028.076.048.126.05.131l.016.04.007.016s.02.046.053.117L1.3,11.668a.6.6,0,0,0-.041.67,7.435,7.435,0,0,0,1.084,1.318,7.4,7.4,0,0,0,1.319,1.085.6.6,0,0,0,.67-.041l1.049-.806.117.053.016.007.051.02.12.046.172,1.312a.6.6,0,0,0,.445.5A7.43,7.43,0,0,0,8,16a7.431,7.431,0,0,0,1.7-.165.6.6,0,0,0,.445-.5l.172-1.312.133-.05.054-.023.117-.053,1.048.806a.6.6,0,0,0,.67.041,7.434,7.434,0,0,0,1.318-1.084,7.449,7.449,0,0,0,1.084-1.318.6.6,0,0,0-.041-.67l-.806-1.049.053-.117.007-.016.021-.051.046-.12,1.311-.172a.6.6,0,0,0,.5-.445A7.433,7.433,0,0,0,16,8,7.468,7.468,0,0,0,15.835,6.3Zm-1.1,2.711L13.5,9.174a.6.6,0,0,0-.49.4c-.071.208-.152.418-.152.418l-.013.032c-.018.04-.1.226-.189.4a.6.6,0,0,0,.062.631l.761.99a7.857,7.857,0,0,1-.672.759,7.929,7.929,0,0,1-.759.673l-.989-.761a.6.6,0,0,0-.631-.063c-.2.1-.4.187-.4.187h0L10,12.856s-.216.083-.429.156a.6.6,0,0,0-.4.49l-.162,1.238a8.43,8.43,0,0,1-2.024,0L6.826,13.5a.6.6,0,0,0-.4-.49c-.208-.071-.418-.152-.418-.152l-.032-.013c-.04-.018-.226-.1-.4-.189a.6.6,0,0,0-.631.062l-.99.761a7.886,7.886,0,0,1-.759-.673,7.977,7.977,0,0,1-.672-.759l.761-.99a.6.6,0,0,0,.062-.631c-.089-.18-.173-.368-.19-.405L3.143,10s-.084-.217-.155-.428a.6.6,0,0,0-.49-.4L1.26,9.012A8.035,8.035,0,0,1,1.2,8,7.923,7.923,0,0,1,1.26,6.988L2.5,6.826a.6.6,0,0,0,.49-.4C3.06,6.213,3.142,6,3.144,6l0-.013h0s.094-.211.193-.412A.6.6,0,0,0,3.28,4.94l-.761-.99A8.341,8.341,0,0,1,3.95,2.518l.99.761a.6.6,0,0,0,.631.062c.181-.089.368-.173.406-.19L6,3.144s.218-.084.429-.156a.6.6,0,0,0,.4-.489L6.988,1.26a8.431,8.431,0,0,1,2.024,0L9.174,2.5a.6.6,0,0,0,.4.489c.209.071.42.153.42.153h0l.03.012c.042.019.227.1.4.189a.6.6,0,0,0,.63-.063l.99-.761a7.887,7.887,0,0,1,.759.672,7.976,7.976,0,0,1,.673.76l-.761.99a.6.6,0,0,0-.062.631c.1.2.187.4.187.4h0L12.856,6s.084.218.156.429a.6.6,0,0,0,.49.4l1.238.162a8.406,8.406,0,0,1,0,2.024Z" fill="#fff"/><path d="M28.281,24.4a3.879,3.879,0,1,0,3.879,3.879A3.884,3.884,0,0,0,28.281,24.4Zm0,6.541a2.662,2.662,0,1,1,2.661-2.662A2.665,2.665,0,0,1,28.281,30.942Z" transform="translate(-20.281 -20.281)" fill="#fff"/></svg>